<svg xmlns="http://www.w3.org/2000/svg" viewBox="0 0 469.38 77.22"><defs><style>.cls-1{fill:#fff;}.cls-2,.cls-3{fill:#22356b;}.cls-2,.cls-4,.cls-5{fill-rule:evenodd;}.cls-4{fill:#f15e22;}.cls-5{fill:#52ad47;}</style></defs><g id="Layer_2" data-name="Layer 2"><g id="Layer_1-2" data-name="Layer 1"><rect class="cls-1" width="104.42" height="77.22" rx="18.25"/><polygon class="cls-2" points="66.81 32.66 60.62 20.05 60 20.7 66.03 32.98 66.81 32.66"/><path class="cls-2" d="M77.31,54,68.73,36.55l-.8.3,8.6,17.51a2.08,2.08,0,0,0,1.35,1l.16-.83c-.27,0-.5-.18-.73-.51"/><rect class="cls-3" x="22.96" y="56.68" width="1.85" height="9.89"/><polygon class="cls-3" points="38.14 56.66 40 56.66 40 66.56 38.84 66.56 38.84 66.58 33.65 59.9 33.65 66.56 31.78 66.56 31.78 56.68 33.3 56.68 38.14 62.81 38.14 56.66"/><path class="cls-3" d="M55.49,61.54a4.67,4.67,0,0,1-4.94,5H46.67V56.68h3.88a4.66,4.66,0,0,1,4.94,4.86m-7,3.23h2a3.17,3.17,0,0,0,0-6.33h-2Z"/><rect class="cls-3" x="61.82" y="56.68" width="1.85" height="9.89"/><path class="cls-3" d="M77.53,64.7H72.36l-.85,1.86h-2l4.43-9.88h2l4.43,9.88h-2Zm-2.59-6L73.11,63h3.67Z"/><path class="cls-2" d="M71,31l2.42-.22L64.33,12.21c-1.69-1.92-3.45-2.29-5.31.11L41.79,46a5.13,5.13,0,0,1-3.37,2.81c-20.55.78-26-30.7-1-33.58l11.46.21c2.15,0,2.06-4.16,0-4.48l-12.22-.06C13.19,11.18,5.46,49.94,38,53.76a8.67,8.67,0,0,0,6.08-2.47L60,19.85c.71-1.53,1.45-1.64,2.24,0l6,12.29Z"/><path class="cls-2" d="M75.09,34.21l-5,1.84,8.4,17.3a6.22,6.22,0,0,0,5.89-.13Z"/><path class="cls-4" d="M50.29,33.8c11.56-1,23.52-4.67,35.33-7.84C74.27,31.82,66.27,33.77,56.39,36.5l2.94,5.67L55.8,43.74Z"/><path class="cls-5" d="M59.78,37.76c13.07-4.1,20.88-6.5,31.77-10.62A183.76,183.76,0,0,1,65.19,39.62l3,5.37L65,46.81Z"/><path class="cls-1" d="M159.68,27.65A11.29,11.29,0,0,1,155,32.13,16.63,16.63,0,0,1,147,33.84H141.2V47.7h-9.41V9.09H147a17.39,17.39,0,0,1,7.81,1.59,11,11,0,0,1,4.78,4.4,12.74,12.74,0,0,1,1.6,6.44A12.4,12.4,0,0,1,159.68,27.65Zm-9.35-2.56a4.7,4.7,0,0,0,1.32-3.57,4.74,4.74,0,0,0-1.32-3.58,5.63,5.63,0,0,0-4-1.26H141.2v9.68h5.11A5.59,5.59,0,0,0,150.33,25.09Z"/><path class="cls-1" d="M184.15,46.71a12.49,12.49,0,0,1-5.36-4.07,11.16,11.16,0,0,1-2.12-6.49h10a4.88,4.88,0,0,0,1.49,3.27,4.77,4.77,0,0,0,3.3,1.13,5.13,5.13,0,0,0,3.3-1,3.47,3.47,0,0,0,.25-5A7.83,7.83,0,0,0,192.65,33a37.36,37.36,0,0,0-4-1.37,43.65,43.65,0,0,1-6.1-2.31,11.31,11.31,0,0,1-4.07-3.41A9.51,9.51,0,0,1,176.78,20a10.13,10.13,0,0,1,3.91-8.44q3.9-3.06,10.17-3.05t10.29,3.05a10.92,10.92,0,0,1,4.18,8.5H195.15a4,4,0,0,0-1.37-2.95,4.88,4.88,0,0,0-3.25-1.07,4,4,0,0,0-2.75.91,3.29,3.29,0,0,0-1,2.61,3.25,3.25,0,0,0,1.76,2.92,28.9,28.9,0,0,0,5.5,2.25,50.7,50.7,0,0,1,6.08,2.42,11.65,11.65,0,0,1,4,3.36,8.93,8.93,0,0,1,1.7,5.66,11.21,11.21,0,0,1-1.67,6,11.84,11.84,0,0,1-4.87,4.29,16.73,16.73,0,0,1-7.54,1.59A20,20,0,0,1,184.15,46.71Z"/><path class="cls-1" d="M229.64,46.71a12.37,12.37,0,0,1-5.36-4.07,11.09,11.09,0,0,1-2.12-6.49h10a4.46,4.46,0,0,0,4.78,4.4,5.09,5.09,0,0,0,3.3-1,3.47,3.47,0,0,0,.25-5A7.78,7.78,0,0,0,238.14,33a39,39,0,0,0-4-1.37A43.35,43.35,0,0,1,228,29.33,11.4,11.4,0,0,1,224,25.92a9.57,9.57,0,0,1-1.7-5.89,10.12,10.12,0,0,1,3.9-8.44q3.92-3.06,10.18-3.05t10.28,3.05a10.89,10.89,0,0,1,4.18,8.5H240.64a4,4,0,0,0-1.38-2.95A4.85,4.85,0,0,0,236,16.07a4,4,0,0,0-2.75.91,3.26,3.26,0,0,0-1.05,2.61A3.25,3.25,0,0,0,234,22.51a29.19,29.19,0,0,0,5.5,2.25,50,50,0,0,1,6.08,2.42,11.47,11.47,0,0,1,4,3.36,8.93,8.93,0,0,1,1.71,5.66,11.13,11.13,0,0,1-1.68,6,11.84,11.84,0,0,1-4.87,4.29,16.69,16.69,0,0,1-7.53,1.59A19.94,19.94,0,0,1,229.64,46.71Z"/><path class="cls-1" d="M291.13,47.7l-13-17.05V47.7h-9.41V9.09h9.41V26L291,9.09h11.05L287.11,28,302.62,47.7Z"/><path class="cls-1" d="M348.27,47.7l-3.57-3.47a20.39,20.39,0,0,1-12.76,4.07,19.12,19.12,0,0,1-7.76-1.46,11.53,11.53,0,0,1-5.09-4.12,11,11,0,0,1-1.78-6.24,11.68,11.68,0,0,1,1.95-6.58,14.1,14.1,0,0,1,5.86-4.81,12,12,0,0,1-2-3.38,10.13,10.13,0,0,1-.6-3.55,9.08,9.08,0,0,1,1.43-5,9.57,9.57,0,0,1,4.15-3.55,15,15,0,0,1,6.46-1.29A13.9,13.9,0,0,1,341,9.69a9.46,9.46,0,0,1,4,3.69,9.26,9.26,0,0,1,1.21,5.06h-8.86a3,3,0,0,0-.74-2.29,2.87,2.87,0,0,0-2.12-.79,3.19,3.19,0,0,0-2.2.77,2.49,2.49,0,0,0-.88,2,4.86,4.86,0,0,0,.74,2.42,16.84,16.84,0,0,0,2.34,2.91l9.41,9.19a5.85,5.85,0,0,1,.3-.66c.13-.26.26-.55.41-.88l2-3.47H356l-2.64,4.79a46.56,46.56,0,0,1-3.41,6.16l9.3,9.13Zm-9.35-9.08-8.58-8.3c-2.64,1.35-4,3.19-4,5.5A4.44,4.44,0,0,0,328,39.31a6.49,6.49,0,0,0,4.38,1.4A10.77,10.77,0,0,0,338.92,38.62Z"/><path class="cls-1" d="M375.16,18.13a17.84,17.84,0,0,1,6.91-7,20,20,0,0,1,10-2.5,19.18,19.18,0,0,1,11.76,3.63,17.41,17.41,0,0,1,6.55,9.9H400.08a8.32,8.32,0,0,0-3.27-3.69A9.24,9.24,0,0,0,392,17.23a9,9,0,0,0-7,3,11.74,11.74,0,0,0-2.69,8.09A11.72,11.72,0,0,0,385,36.42a9,9,0,0,0,7,3,9.16,9.16,0,0,0,4.82-1.27,8.34,8.34,0,0,0,3.27-3.68h10.34a17.27,17.27,0,0,1-6.55,9.87A19.29,19.29,0,0,1,392.11,48a20,20,0,0,1-10-2.5,17.85,17.85,0,0,1-6.91-7,20.58,20.58,0,0,1-2.47-10.17A20.77,20.77,0,0,1,375.16,18.13Z"/><path class="cls-1" d="M424.47,45.55a18.8,18.8,0,0,1-7.2-7.07,19.71,19.71,0,0,1-2.67-10.2,19.57,19.57,0,0,1,2.67-10.17,18.86,18.86,0,0,1,7.2-7,21,21,0,0,1,20,0,18.6,18.6,0,0,1,7.15,7,19.92,19.92,0,0,1,2.61,10.17,19.88,19.88,0,0,1-2.64,10.2,18.74,18.74,0,0,1-7.15,7.07,20.91,20.91,0,0,1-19.94,0Zm17.38-9.13a11.68,11.68,0,0,0,2.78-8.14,11.69,11.69,0,0,0-2.78-8.17,10.59,10.59,0,0,0-14.85,0,11.63,11.63,0,0,0-2.78,8.19A11.69,11.69,0,0,0,427,36.45a9.6,9.6,0,0,0,7.45,3A9.46,9.46,0,0,0,441.85,36.42Z"/><path class="cls-1" d="M459.78,46.68a4.73,4.73,0,0,1-1.57-3.6,4.9,4.9,0,0,1,1.57-3.69,5.64,5.64,0,0,1,4-1.48,5.55,5.55,0,0,1,4,1.48,4.86,4.86,0,0,1,1.57,3.69,4.7,4.7,0,0,1-1.57,3.6,5.62,5.62,0,0,1-4,1.46A5.71,5.71,0,0,1,459.78,46.68Z"/><path class="cls-1" d="M155,62.36a6.53,6.53,0,0,1,2.54-2.54,7.61,7.61,0,0,1,7.71.29,6.28,6.28,0,0,1,2.46,3.32h-3.22a3.3,3.3,0,0,0-1.35-1.5,3.9,3.9,0,0,0-2-.5,4.11,4.11,0,0,0-2.17.57,3.79,3.79,0,0,0-1.48,1.61,5.86,5.86,0,0,0,0,4.87,3.81,3.81,0,0,0,1.48,1.62,4.11,4.11,0,0,0,2.17.57,3.9,3.9,0,0,0,2-.51,3.43,3.43,0,0,0,1.35-1.51h3.22A6.34,6.34,0,0,1,165.23,72a7.17,7.17,0,0,1-4.11,1.19,7.25,7.25,0,0,1-3.61-.91A6.64,6.64,0,0,1,155,69.73a7.77,7.77,0,0,1,0-7.37Z"/><path class="cls-1" d="M181.66,59.09v14h-2.8V67.11h-6v5.94h-2.8v-14h2.8v5.74h6V59.09Z"/><path class="cls-1" d="M193,70.39h-5.56l-.92,2.66h-2.94l5-14h3.26l5,14h-3Zm-.76-2.24-2-5.84-2,5.84Z"/><path class="cls-1" d="M205.94,73.05l-3.08-5.44h-1.32v5.44h-2.8v-14H204a6.12,6.12,0,0,1,2.76.57,4,4,0,0,1,1.71,1.54,4.34,4.34,0,0,1-.23,4.66,4.14,4.14,0,0,1-2.38,1.53l3.34,5.66Zm-4.4-7.54h2.34a2.38,2.38,0,0,0,1.7-.55,2.07,2.07,0,0,0,.56-1.53,2,2,0,0,0-.56-1.49,2.37,2.37,0,0,0-1.7-.53h-2.34Z"/><path class="cls-1" d="M221.05,59.09v2.26h-3.71v11.7h-2.81V61.35h-3.71V59.09Z"/><path class="cls-1" d="M225.9,61.35v3.5h4.7v2.22h-4.7v3.7h5.3v2.28h-8.1v-14h8.1v2.28Z"/><path class="cls-1" d="M240.94,73.05l-3.08-5.44h-1.32v5.44h-2.8v-14H239a6.12,6.12,0,0,1,2.76.57,4,4,0,0,1,1.71,1.54,4.34,4.34,0,0,1-.23,4.66,4.14,4.14,0,0,1-2.38,1.53l3.34,5.66Zm-4.4-7.54h2.34a2.38,2.38,0,0,0,1.7-.55,2.07,2.07,0,0,0,.56-1.53,2,2,0,0,0-.56-1.49,2.37,2.37,0,0,0-1.7-.53h-2.34Z"/><path class="cls-1" d="M249.36,61.35v3.5h4.69v2.22h-4.69v3.7h5.3v2.28h-8.11v-14h8.11v2.28Z"/><path class="cls-1" d="M266,60a6.16,6.16,0,0,1,2.58,2.45,7.37,7.37,0,0,1,.91,3.69,7.26,7.26,0,0,1-.91,3.67A6.31,6.31,0,0,1,266,72.19a8.42,8.42,0,0,1-3.87.86H257.2v-14h4.88A8.29,8.29,0,0,1,266,60Zm-.57,9.52a4.58,4.58,0,0,0,1.2-3.38,4.67,4.67,0,0,0-1.2-3.41,4.54,4.54,0,0,0-3.4-1.23h-2v9.22h2A4.61,4.61,0,0,0,265.38,69.47Z"/><path class="cls-1" d="M284.85,70.39h-5.56l-.92,2.66h-2.94l5-14h3.26l5,14h-3Zm-.75-2.24-2-5.84-2,5.84Z"/><path class="cls-1" d="M290.86,62.36a6.6,6.6,0,0,1,2.54-2.54,7.2,7.2,0,0,1,3.61-.91,7.13,7.13,0,0,1,4.11,1.2,6.28,6.28,0,0,1,2.46,3.32h-3.22a3.38,3.38,0,0,0-1.36-1.5,3.9,3.9,0,0,0-2-.5,4.16,4.16,0,0,0-2.17.57,3.91,3.91,0,0,0-1.48,1.61,5.86,5.86,0,0,0,0,4.87,3.94,3.94,0,0,0,1.48,1.62,4.16,4.16,0,0,0,2.17.57,3.9,3.9,0,0,0,2-.51,3.51,3.51,0,0,0,1.36-1.51h3.22A6.31,6.31,0,0,1,301.12,72,7.13,7.13,0,0,1,297,73.17a7.3,7.3,0,0,1-3.61-.91,6.71,6.71,0,0,1-2.54-2.53,7.77,7.77,0,0,1,0-7.37Z"/><path class="cls-1" d="M306.22,62.36a6.6,6.6,0,0,1,2.54-2.54,7.2,7.2,0,0,1,3.61-.91,7.09,7.09,0,0,1,4.1,1.2,6.18,6.18,0,0,1,2.46,3.32h-3.22a3.28,3.28,0,0,0-1.34-1.5,3.93,3.93,0,0,0-2-.5,4.16,4.16,0,0,0-2.17.57,3.91,3.91,0,0,0-1.48,1.61,5.86,5.86,0,0,0,0,4.87,3.94,3.94,0,0,0,1.48,1.62,4.16,4.16,0,0,0,2.17.57,3.94,3.94,0,0,0,2-.51,3.41,3.41,0,0,0,1.34-1.51h3.22A6.27,6.27,0,0,1,316.49,72a7.18,7.18,0,0,1-4.12,1.19,7.3,7.3,0,0,1-3.61-.91,6.71,6.71,0,0,1-2.54-2.53,7.77,7.77,0,0,1,0-7.37Z"/><path class="cls-1" d="M324.21,72.27a6.89,6.89,0,0,1-2.59-2.55,7.06,7.06,0,0,1-1-3.69,7,7,0,0,1,1-3.67,6.75,6.75,0,0,1,2.59-2.55,7.52,7.52,0,0,1,7.21,0A6.72,6.72,0,0,1,334,62.36,7.07,7.07,0,0,1,335,66a7.14,7.14,0,0,1-.95,3.69,6.82,6.82,0,0,1-2.59,2.55,7.5,7.5,0,0,1-7.2,0ZM330,70.12a4,4,0,0,0,1.5-1.63,5.37,5.37,0,0,0,.55-2.46,5.27,5.27,0,0,0-.55-2.45A3.83,3.83,0,0,0,330,62a4.24,4.24,0,0,0-2.22-.56,4.32,4.32,0,0,0-2.23.56,3.77,3.77,0,0,0-1.5,1.61,5.15,5.15,0,0,0-.55,2.45,5.25,5.25,0,0,0,.55,2.46,3.88,3.88,0,0,0,1.5,1.63,4.33,4.33,0,0,0,2.23.57A4.24,4.24,0,0,0,330,70.12Z"/><path class="cls-1" d="M339.79,59.09v8.64a3,3,0,0,0,.74,2.17,3.29,3.29,0,0,0,4.18,0,2.94,2.94,0,0,0,.74-2.17V59.09h2.82v8.62a5.52,5.52,0,0,1-.77,3,4.91,4.91,0,0,1-2.06,1.85,6.57,6.57,0,0,1-2.87.62,6.42,6.42,0,0,1-2.83-.62,4.84,4.84,0,0,1-2-1.85,5.79,5.79,0,0,1-.74-3V59.09Z"/><path class="cls-1" d="M362.91,73.05h-2.8l-6.34-9.58v9.58H351v-14h2.8l6.34,9.6v-9.6h2.8Z"/><path class="cls-1" d="M375.17,59.09v2.26h-3.72v11.7h-2.8V61.35h-3.72V59.09Z"/><path class="cls-1" d="M385.77,70.39h-5.56l-.92,2.66h-2.94l5-14h3.26l5,14h-3ZM385,68.15l-2-5.84-2,5.84Z"/><path class="cls-1" d="M403.47,73.05h-2.8l-6.34-9.58v9.58h-2.8v-14h2.8l6.34,9.6v-9.6h2.8Z"/><path class="cls-1" d="M415.73,59.09v2.26H412v11.7h-2.8V61.35h-3.72V59.09Z"/><path class="cls-1" d="M420,72.69a4.4,4.4,0,0,1-1.85-1.44,3.81,3.81,0,0,1-.7-2.22h3a2,2,0,0,0,.61,1.36,2.18,2.18,0,0,0,1.51.5,2.34,2.34,0,0,0,1.54-.47,1.56,1.56,0,0,0,.56-1.23,1.41,1.41,0,0,0-.38-1,2.55,2.55,0,0,0-.95-.63,12.67,12.67,0,0,0-1.57-.51,17.9,17.9,0,0,1-2.21-.79,3.94,3.94,0,0,1-1.46-1.18,3.35,3.35,0,0,1-.61-2.11,3.73,3.73,0,0,1,2.36-3.57,6.29,6.29,0,0,1,2.56-.49,5.55,5.55,0,0,1,3.51,1,3.87,3.87,0,0,1,1.49,2.93h-3.08a1.61,1.61,0,0,0-.61-1.19,2.26,2.26,0,0,0-1.51-.47,1.94,1.94,0,0,0-1.31.42,1.5,1.5,0,0,0-.49,1.22,1.26,1.26,0,0,0,.37.93,3.05,3.05,0,0,0,.92.6c.37.15.88.33,1.55.53a14.76,14.76,0,0,1,2.22.8,3.86,3.86,0,0,1,1.48,1.2,3.28,3.28,0,0,1,.62,2.1,3.94,3.94,0,0,1-.58,2.08,4.09,4.09,0,0,1-1.7,1.53,5.8,5.8,0,0,1-2.66.57A6.7,6.7,0,0,1,420,72.69Z"/></g></g></svg>